<svg xmlns="http://www.w3.org/2000/svg" version="1.1" xmlns:xlink="http://www.w3.org/1999/xlink" xmlns:svgjs="http://svgjs.dev/svgjs" width="100%" height="100%" viewBox="0 0 1000 600"><rect width="1000" height="600" x="0" y="0" fill="#3f70ee"/><g><rect width="333.3333333333333" height="333.3333333333333" rx="13.333333333333334" ry="13.333333333333334" y="244.11241598111212" fill="#080a52" transform="matrix(0.5633418150940428,0,0,0.5633418150940428,0,68.59098978185624)" x="221.8902587890625"/><path d="M413.2894683470843 373.2790723163142L413.2894683470843 373.2790723163142Q413.2894683470843 348.33537805113315 380.2376657880296 348.33537805113315L380.2376657880296 348.33537805113315L359.57325090017076 348.33537805113315L359.57325090017076 401.23515403789975L376.40883687147806 401.23515403789975Q394.8491526092812 401.23515403789975 404.05523390128366 393.943487204173Q413.2894683470843 386.6518203704463 413.2894683470843 373.2790723163142ZM417.962891877581 443.8027225807369L417.962891877581 443.8027225807369Q417.962891877581 428.79709160631086 407.0113150500918 421.5054247725841Q396.0597382226026 414.2137579388573 372.35478272454117 414.2137579388573L372.35478272454117 414.2137579388573L359.17910674699635 414.2137579388573L359.17910674699635 472.997543069442L374.775953951184 472.997543069442Q417.962891877581 472.997543069442 417.962891877581 443.8027225807369ZM432.9403696982089 442.98628112058987L432.9403696982089 442.98628112058987Q432.9403696982089 485.77907489381244 374.3818097980096 485.77907489381244L374.3818097980096 485.77907489381244L349.832259686003 485.77907489381244Q345.58113346247893 485.77907489381244 344.8773046175246 485.04709289505996Q344.17347577257027 484.34326405010563 344.17347577257027 480.09213782658156L344.17347577257027 480.09213782658156L344.17347577257027 341.43785537058085Q344.17347577257027 337.1867291470568 344.8773046175246 336.48290030210245Q345.58113346247893 335.7790714571481 349.832259686003 335.7790714571481L349.832259686003 335.7790714571481L380.2376657880296 335.7790714571481Q428.2950993215104 335.7790714571481 428.2950993215104 372.65970293275444L428.2950993215104 372.65970293275444Q428.2950993215104 400.84100988472534 401.5214500594481 406.9220911051306L401.5214500594481 406.9220911051306Q416.94937834084675 411.3702894052419 424.94487401952784 420.40745177445535Q432.9403696982089 429.41646098987064 432.9403696982089 442.98628112058987Z " fill="#7fff00" transform="matrix(0.5633418150940428,0,0,0.5633418150940428,0,68.59098978185624)"/><path d="M701.5379399129583 380.3147282975767L701.5379399129583 380.3147282975767Q701.5379399129583 357.5851238465095 671.4199313062394 357.5851238465095L671.4199313062394 357.5851238465095L652.5897623817661 357.5851238465095L652.5897623817661 405.7893301259173L667.9309626771817 405.7893301259173Q684.7344512950699 405.7893301259173 693.1233685134662 399.14489722205Q701.5379399129583 392.5004643181827 701.5379399129583 380.3147282975767ZM705.7965339748964 444.57845194308845L705.7965339748964 444.57845194308845Q705.7965339748964 430.9047734189137 695.8170575285474 424.2603405150464Q685.8375810821985 417.6159076111791 664.2367605993559 417.6159076111791L664.2367605993559 417.6159076111791L652.2306038464219 417.6159076111791L652.2306038464219 471.1818377396536L666.4430201736129 471.1818377396536Q705.7965339748964 471.1818377396536 705.7965339748964 444.57845194308845ZM719.4445583179752 443.83448069130407L719.4445583179752 443.83448069130407Q719.4445583179752 482.82883595724337 666.0838616382688 482.82883595724337L666.0838616382688 482.82883595724337L643.7134157225457 482.82883595724337Q639.8396343770478 482.82883595724337 639.1982798496474 482.161827248747Q638.5569253222471 481.5204727213467 638.5569253222471 477.6466913758488L638.5569253222471 477.6466913758488L638.5569253222471 351.29984947798636Q638.5569253222471 347.42606813248847 639.1982798496474 346.78471360508814Q639.8396343770478 346.1433590776878 643.7134157225457 346.1433590776878L643.7134157225457 346.1433590776878L671.4199313062394 346.1433590776878Q715.211618437133 346.1433590776878 715.211618437133 379.75033631346446L715.211618437133 379.75033631346446Q715.211618437133 405.43017159057314 690.8144922148249 410.97147470731187L690.8144922148249 410.97147470731187Q704.8729834554399 415.0248353204818 712.1587708867075 423.2598274523019Q719.4445583179752 431.469165403026 719.4445583179752 443.83448069130407ZM823.4466084812105 432.9571079065947L823.4466084812105 432.9571079065947Q823.4466084812105 424.2603405150464 821.1377321825693 416.69235709172267Q818.8288558839282 409.12437366839896 814.7754952707581 403.19825783522L814.7754952707581 403.19825783522Q805.1551773597536 391.3973345310542 789.8396312454339 391.3973345310542L789.8396312454339 391.3973345310542Q782.0664143733421 391.3973345310542 775.8837567292031 394.4245279003837Q769.7010990850639 397.4773754508092 764.9037672201097 403.19825783522L764.9037672201097 403.19825783522Q760.6451731581716 409.12437366839896 758.3362968595303 416.69235709172267Q756.0274205608893 424.2603405150464 756.0274205608893 432.9571079065947L756.0274205608893 432.9571079065947Q756.0274205608893 441.8078003847191 758.3362968595303 449.37578380804285Q760.6451731581716 456.96942141246257 764.9037672201097 462.69030379687337L764.9037672201097 462.69030379687337Q774.6780102176905 474.69646054980734 789.8396312454339 474.69646054980734L789.8396312454339 474.69646054980734Q797.5871939364298 474.69646054980734 803.7698515805688 471.5409962749978Q809.9525092247078 468.4111861812842 814.7754952707581 462.69030379687337L814.7754952707581 462.69030379687337Q818.8288558839282 456.96942141246257 821.1377321825693 449.37578380804285Q823.4466084812105 441.8078003847191 823.4466084812105 432.9571079065947ZM837.1202870053852 432.9571079065947L837.1202870053852 432.9571079065947Q837.1202870053852 443.83448069130407 833.9648227305757 453.1726026102527Q830.8350126368622 462.5107245292013 825.6528680554676 469.51431596841275L825.6528680554676 469.51431596841275Q819.1880144192725 477.28753284050464 810.2347052167639 481.5204727213467Q801.2813960142556 485.7790667832848 789.8396312454339 485.7790667832848L789.8396312454339 485.7790667832848Q778.3722122955163 485.7790667832848 769.3162863686238 481.5204727213467Q760.2860146228273 477.28753284050464 753.8211609866322 469.51431596841275L753.8211609866322 469.51431596841275Q748.6390164052376 462.5107245292013 745.586168854812 453.1726026102527Q742.5333213043865 443.83448069130407 742.5333213043865 432.9571079065947L742.5333213043865 432.9571079065947Q742.5333213043865 410.5866619908717 753.8211609866322 396.37424566368065L753.8211609866322 396.37424566368065Q766.7508682590225 380.3147282975767 789.8396312454339 380.3147282975767L789.8396312454339 380.3147282975767Q801.4609752819277 380.3147282975767 810.3373219411479 384.2654721863627Q819.1880144192725 388.2418702562446 825.6528680554676 396.37424566368065L825.6528680554676 396.37424566368065Q837.1202870053852 410.97147470731187 837.1202870053852 432.9571079065947ZM935.3758006031138 432.9571079065947L935.3758006031138 432.9571079065947Q935.3758006031138 424.2603405150464 933.0669243044725 416.69235709172267Q930.7580480058315 409.12437366839896 926.7046873926616 403.19825783522L926.7046873926616 403.19825783522Q917.0843694816568 391.3973345310542 901.7688233673372 391.3973345310542L901.7688233673372 391.3973345310542Q893.9956064952454 391.3973345310542 887.8129488511064 394.4245279003837Q881.6302912069672 397.4773754508092 876.8329593420129 403.19825783522L876.8329593420129 403.19825783522Q872.5743652800749 409.12437366839896 870.2654889814336 416.69235709172267Q867.9566126827925 424.2603405150464 867.9566126827925 432.9571079065947L867.9566126827925 432.9571079065947Q867.9566126827925 441.8078003847191 870.2654889814336 449.37578380804285Q872.5743652800749 456.96942141246257 876.8329593420129 462.69030379687337L876.8329593420129 462.69030379687337Q886.6072023395938 474.69646054980734 901.7688233673372 474.69646054980734L901.7688233673372 474.69646054980734Q909.5163860583331 474.69646054980734 915.6990437024721 471.5409962749978Q921.9073555277072 468.4111861812842 926.7046873926616 462.69030379687337L926.7046873926616 462.69030379687337Q930.7580480058315 456.96942141246257 933.0669243044725 449.37578380804285Q935.3758006031138 441.8078003847191 935.3758006031138 432.9571079065947ZM949.0494791272887 432.9571079065947L949.0494791272887 432.9571079065947Q949.0494791272887 443.83448069130407 945.9196690335749 453.1726026102527Q942.7642047587655 462.5107245292013 937.607714358467 469.51431596841275L937.607714358467 469.51431596841275Q931.1428607222716 477.28753284050464 922.1638973386672 481.5204727213467Q913.2105881361589 485.7790667832848 901.7688233673372 485.7790667832848L901.7688233673372 485.7790667832848Q890.3014044174196 485.7790667832848 881.2711326716231 481.5204727213467Q872.2152067447306 477.28753284050464 865.7503531085355 469.51431596841275L865.7503531085355 469.51431596841275Q860.5682085271409 462.5107245292013 857.5153609767154 453.1726026102527Q854.4881676073859 443.83448069130407 854.4881676073859 432.9571079065947L854.4881676073859 432.9571079065947Q854.4881676073859 410.5866619908717 865.7503531085355 396.37424566368065L865.7503531085355 396.37424566368065Q878.6800603809257 380.3147282975767 901.7688233673372 380.3147282975767L901.7688233673372 380.3147282975767Q913.390167403831 380.3147282975767 922.2665140630514 384.2654721863627Q931.1428607222716 388.2418702562446 937.607714358467 396.37424566368065L937.607714358467 396.37424566368065Q949.0494791272887 410.97147470731187 949.0494791272887 432.9571079065947ZM1044.5343411666477 385.47121869787526L1007.0535825853732 427.41580478985594L1046.945834189673 480.2377636665461Q1047.5102261737852 481.1613141860025 1047.3049927250172 481.9822479810749Q1047.125413457345 482.82883595724337 1046.0222836702164 482.82883595724337L1046.0222836702164 482.82883595724337L1038.0694875304525 482.82883595724337Q1036.2223864915395 482.82883595724337 1034.760098169067 482.2644439731311Q1033.2721556654983 481.7000519890188 1032.3486051460418 480.2377636665461L1032.3486051460418 480.2377636665461L999.1007864456093 436.26649726798036L986.7354711573313 450.1197550598272L986.7354711573313 480.2377636665461Q986.7354711573313 482.82883595724337 984.1443988666339 482.82883595724337L984.1443988666339 482.82883595724337L976.7559947109822 482.82883595724337Q974.164922420285 482.82883595724337 974.164922420285 480.2377636665461L974.164922420285 480.2377636665461L974.164922420285 338.370142205596Q974.164922420285 335.77906991489874 976.7559947109822 335.77906991489874L976.7559947109822 335.77906991489874L984.1443988666339 335.77906991489874Q986.7354711573313 335.77906991489874 986.7354711573313 338.370142205596L986.7354711573313 338.370142205596L986.7354711573313 434.5989754967395L1028.8339823358879 385.47121869787526Q1031.4250546265853 382.88014640717796 1034.9396774367392 382.88014640717796L1034.9396774367392 382.88014640717796L1043.6107906471912 382.88014640717796Q1044.7395746154157 382.88014640717796 1045.09873315076 383.7267343833464Q1045.4578916861042 384.5476681784188 1044.5343411666477 385.47121869787526L1044.5343411666477 385.47121869787526ZM1139.6600446706625 386.0356106819875L1139.6600446706625 386.0356106819875Q1139.6600446706625 378.2623938098957 1137.915560356134 372.823707417541Q1136.171076041605 367.38502102518635 1132.015098704051 363.94736075832066Q1127.8591213664968 360.53535467255097 1121.1890342815336 359.0730663500782Q1114.5446013776664 357.5851238465095 1104.5651249313173 357.5851238465095L1104.5651249313173 357.5851238465095L1085.555376739172 357.5851238465095L1085.555376739172 412.63899647855266L1104.9499376477575 412.63899647855266Q1112.5179210710812 412.63899647855266 1118.8801579828923 410.79189543963975Q1125.2680490757998 408.94479440072683 1129.885801673082 405.43017159057314Q1134.503554270364 401.9155487804194 1137.0946265610614 397.015600191081Q1139.6600446706625 392.1156516017425 1139.6600446706625 386.0356106819875ZM1129.7062224054098 419.1038501147479L1161.6456778699453 480.2377636665461Q1162.030490586386 481.1613141860025 1161.6456778699453 481.9822479810749Q1161.2865193346015 482.82883595724337 1160.1833895474729 482.82883595724337L1160.1833895474729 482.82883595724337L1150.563071636468 482.82883595724337Q1147.7924200780985 482.82883595724337 1146.5097110232982 480.2377636665461L1146.5097110232982 480.2377636665461Q1138.19775634819 462.8698830645455 1132.6564532314515 451.88989355545203Q1127.1151501147124 440.88424986526263 1123.9596858399032 434.41939622906744L1123.9596858399032 434.41939622906744Q1120.085904494405 426.8514128057437 1118.0592241878203 422.7980521925737L1118.0592241878203 422.7980521925737Q1113.800630125882 423.7216027120301 1110.2090447724404 423.90118197970224Q1106.6174594189984 424.0807612473743 1101.0761563022597 424.2603405150464L1101.0761563022597 424.2603405150464L1085.555376739172 424.2603405150464L1085.555376739172 480.2377636665461Q1085.555376739172 482.82883595724337 1082.9643044484746 482.82883595724337L1082.9643044484746 482.82883595724337L1074.6523497733665 482.82883595724337Q1072.0612774826695 482.82883595724337 1072.0612774826695 480.2377636665461L1072.0612774826695 480.2377636665461L1072.0612774826695 351.68466219442655Q1072.0612774826695 349.6323277067455 1072.1638942070535 348.529197919617Q1072.2408567503412 347.42606813248847 1072.805248734454 346.8616761483762Q1073.3696407185657 346.32293834535994 1074.4727705056944 346.2203216209759Q1075.575900292823 346.1433590776878 1077.6025805994082 346.1433590776878L1077.6025805994082 346.1433590776878L1112.5179210710812 346.1433590776878Q1123.0361353204466 346.1433590776878 1130.7067354681544 348.99097317934525Q1138.3773356158622 351.8642414620987 1143.4568634728726 357.0207318623972Q1148.536391329883 362.20287644379175 1151.0248468961963 369.5912805994434Q1153.5133024625097 376.9796847550951 1153.5133024625097 386.0356106819875L1153.5133024625097 386.0356106819875Q1153.5133024625097 391.57691379872625 1151.5892388803086 396.5538249313527Q1149.6395211170116 401.5563902450752 1146.330131755626 405.7893301259173Q1142.9950882131443 410.0479241878554 1138.6595316079183 413.45993027362505Q1134.3239750026924 416.87193635939474 1129.7062224054098 419.1038501147479L1129.7062224054098 419.1038501147479ZM1191.378873760224 425.9278622862872L1246.791904927612 425.9278622862872Q1246.791904927612 418.3598788629635 1245.329616605139 412.4337630297846Q1243.8416741015703 406.53330137770166 1240.7118640078565 401.73596951274726L1240.7118640078565 401.73596951274726Q1233.8621976552213 390.8329425469419 1220.932490382831 390.8329425469419L1220.932490382831 390.8329425469419Q1207.643624575096 390.8329425469419 1199.3316698999884 401.9155487804194L1199.3316698999884 401.9155487804194Q1195.9966263575066 406.89245991304585 1193.7903667832493 413.35731354924104Q1191.5841072089925 419.82216718543623 1191.378873760224 425.9278622862872L1191.378873760224 425.9278622862872ZM1253.8211505479194 436.4460765356524L1191.378873760224 436.4460765356524Q1191.1992944925523 445.681581730217 1193.5081707911932 452.81344407490855Q1195.8170470898344 459.91965223850406 1200.2552204194449 464.7169841034584Q1204.6933937490548 469.51431596841275 1210.8760513931938 472.10538825911004Q1217.0587090373328 474.69646054980734 1224.6266924606566 474.69646054980734L1224.6266924606566 474.69646054980734Q1232.0150966163083 474.69646054980734 1238.4799502525034 473.3111347706227Q1244.9448038886985 471.925808991438 1250.4861070054376 468.7703447166284L1250.4861070054376 468.7703447166284Q1252.8976000284629 467.66721492949983 1252.8976000284629 470.078707952525L1252.8976000284629 470.078707952525L1252.8976000284629 478.39066262763316Q1252.8976000284629 480.05818439887395 1250.8709197218777 480.98173491833046L1250.8709197218777 480.98173491833046Q1244.7652246210264 483.36757376025963 1238.1207917171591 484.5733202717722Q1231.4763588132919 485.7790667832848 1223.7031419412 485.7790667832848L1223.7031419412 485.7790667832848Q1200.9991916712288 485.7790667832848 1189.3521934536393 472.5671635188383Q1177.7308494171457 459.35526025439174 1177.7308494171457 432.7518744578266L1177.7308494171457 432.7518744578266Q1177.7308494171457 409.303952936071 1189.3521934536393 394.88630316011194L1189.3521934536393 394.88630316011194Q1201.5379294742452 380.3147282975767 1220.2141733121425 380.3147282975767L1220.2141733121425 380.3147282975767Q1230.5528082938354 380.3147282975767 1238.1207917171591 384.00893037540254Q1245.688775140483 387.70313245322836 1251.0504989895499 395.09153660888L1251.0504989895499 395.09153660888Q1260.4655834517866 408.20082314894245 1260.4655834517866 430.18645634822536L1260.4655834517866 430.18645634822536Q1260.4655834517866 432.57229519015453 1260.3886209084985 433.8806584260512Q1260.2860041841145 435.1633674808518 1259.7216122000023 435.7277594649641Q1259.1828743969859 436.26649726798036 1257.797548617801 436.36911399236436Q1256.4122228386163 436.4460765356524 1253.8211505479194 436.4460765356524L1253.8211505479194 436.4460765356524ZM1342.6615796834112 437.01046851976474L1342.6615796834112 430.7251941512416L1339.1469568732573 430.7251941512416Q1328.808321891564 430.36603561589743 1320.7785632085124 431.57178212741Q1312.7488045254604 432.7518744578266 1307.387080676394 434.80420894550764L1307.387080676394 434.80420894550764Q1299.6395179853976 437.574860503877 1295.740082458804 443.0135468962317Q1291.8663011133062 448.45223328858634 1291.8663011133062 456.0458708930061L1291.8663011133062 456.0458708930061Q1291.8663011133062 460.6636234902884 1293.3542436168746 464.61436737907434Q1294.8165319393474 468.59076544895635 1297.9719962141571 470.8226792043094L1297.9719962141571 470.8226792043094Q1303.5132993308957 475.2351983528236 1312.7488045254604 475.2351983528236L1312.7488045254604 475.2351983528236Q1319.2136581616555 475.2351983528236 1324.6523445540101 472.6697802432223Q1330.1166851274606 470.078707952525 1334.170045740631 465.28137608757066Q1338.2234063538008 460.4583900415203 1340.455320109154 453.3521818779248Q1342.6615796834112 446.2459737143293 1342.6615796834112 437.01046851976474L1342.6615796834112 437.01046851976474ZM1290.0192000743932 398.40092597026563L1290.0192000743932 398.40092597026563Q1289.0956495549367 398.9653179543779 1288.2747157598642 398.68312196232176Q1287.4281277836958 398.40092597026563 1287.4281277836958 397.4773754508092L1287.4281277836958 397.4773754508092L1287.4281277836958 390.47378401159773Q1287.4281277836958 387.88271172090043 1290.0192000743932 386.5743484850038L1290.0192000743932 386.5743484850038Q1296.4840537105883 383.0853798559461 1303.7954953229519 381.7000540767614Q1311.0812827542195 380.3147282975767 1319.752395964672 380.3147282975767L1319.752395964672 380.3147282975767Q1338.2234063538008 380.3147282975767 1346.740594477677 389.0884582324131Q1355.2321284204572 397.86218816724937 1355.2321284204572 415.58922730459415L1355.2321284204572 415.58922730459415L1355.2321284204572 461.94633254508904Q1355.2321284204572 467.48763566182777 1355.4117076881294 471.8231922670539Q1355.5912869558015 476.15874887228006 1355.9760996722416 480.2377636665461L1355.9760996722416 480.2377636665461Q1355.9760996722416 482.82883595724337 1353.3850273815447 482.82883595724337L1353.3850273815447 482.82883595724337L1346.740594477677 482.82883595724337Q1344.14952218698 482.82883595724337 1344.14952218698 480.2377636665461L1344.14952218698 480.2377636665461L1344.14952218698 465.99969315825905Q1340.2757408414818 475.4404318015917 1331.1171981902053 480.5969222018902Q1321.984309720025 485.7790667832848 1311.2608620218916 485.7790667832848L1311.2608620218916 485.7790667832848Q1292.6102723650906 485.7790667832848 1283.9391591546382 474.8760398174794L1283.9391591546382 474.8760398174794Q1280.9632741475007 471.1818377396536 1279.5009858250278 466.2818891503152Q1278.013043321459 461.3819405609768 1278.013043321459 456.58460869602237L1278.013043321459 456.58460869602237Q1278.013043321459 445.32242319487284 1283.272150446142 437.1900477874368Q1288.5569117519203 429.0576723800008 1299.4342845366295 425.00431176683077L1299.4342845366295 425.00431176683077Q1312.7488045254604 420.2069799018764 1340.2757408414818 420.2069799018764L1340.2757408414818 420.2069799018764L1342.6615796834112 420.2069799018764L1342.6615796834112 414.6656767851377Q1342.6615796834112 403.0186785675479 1337.4024725587287 396.9386376477929Q1332.1433654340458 390.8329425469419 1319.752395964672 390.8329425469419L1319.752395964672 390.8329425469419Q1311.4404412895638 390.8329425469419 1304.052037133912 392.57742686147077Q1296.6636329782605 394.3475653570956 1290.0192000743932 398.40092597026563ZM1394.5599880406444 432.7518744578266L1394.5599880406444 432.7518744578266Q1394.5599880406444 441.4486418493749 1395.9453138198296 448.5548500129704Q1397.3306395990144 455.6610581765659 1400.3065246061515 461.0227820256326L1400.3065246061515 461.0227820256326Q1404.3598852193213 467.66721492949983 1410.1833843281165 471.1818377396536Q1416.0068834369113 474.69646054980734 1424.1136046632514 474.69646054980734L1424.1136046632514 474.69646054980734Q1431.502008818903 474.69646054980734 1437.1459286600257 470.8226792043094Q1442.7898485011488 466.92324367771545 1446.5610131222625 460.9201653012485Q1450.357831924472 454.9170869247816 1452.204932963385 447.4517202258419Q1454.0520340022981 439.9606993458062 1454.0520340022981 432.7518744578266L1454.0520340022981 432.7518744578266Q1454.0520340022981 423.90118197970224 1452.102316239001 416.3331985563785Q1450.1782526568004 408.73956095195877 1446.3814338545903 403.19825783522Q1442.5846150523803 397.65695471848124 1437.0433119356417 394.52714462476774Q1431.502008818903 391.3973345310542 1424.1136046632514 391.3973345310542L1424.1136046632514 391.3973345310542Q1408.4132458324916 391.3973345310542 1400.3065246061515 404.8657796064608L1400.3065246061515 404.8657796064608Q1397.3306395990144 410.2275034555275 1395.9453138198296 417.333711619123Q1394.5599880406444 424.4399197827185 1394.5599880406444 432.7518744578266ZM1466.417349290576 338.54972147326805L1466.417349290576 480.2377636665461Q1466.417349290576 482.82883595724337 1463.8262769998787 482.82883595724337L1463.8262769998787 482.82883595724337L1456.6431062929955 482.82883595724337Q1454.0520340022981 482.82883595724337 1454.0520340022981 480.2377636665461L1454.0520340022981 480.2377636665461L1454.0520340022981 466.3845058746992Q1444.072557555949 485.21467479917254 1421.9073450889941 485.21467479917254L1421.9073450889941 485.21467479917254Q1402.1536256450645 485.21467479917254 1391.0710194115873 470.078707952525L1391.0710194115873 470.078707952525Q1380.911963697566 456.0458708930061 1380.911963697566 432.7518744578266L1380.911963697566 432.7518744578266Q1380.911963697566 380.853466100593 1421.9073450889941 380.853466100593L1421.9073450889941 380.853466100593Q1432.9899513224718 380.853466100593 1441.584101989636 385.29163943020313Q1450.1782526568004 389.72981275981334 1454.0520340022981 396.73340419902485L1454.0520340022981 396.73340419902485L1454.0520340022981 338.54972147326805Q1454.0520340022981 335.9843033636668 1456.6431062929955 335.9843033636668L1456.6431062929955 335.9843033636668L1463.8262769998787 335.9843033636668Q1466.417349290576 335.9843033636668 1466.417349290576 338.54972147326805L1466.417349290576 338.54972147326805ZM1493.3798936224857 470.6174457555413L1493.3798936224857 470.6174457555413Q1504.667733304731 475.2351983528236 1516.6738900576652 475.2351983528236L1516.6738900576652 475.2351983528236Q1526.627712322918 475.2351983528236 1533.092565959113 470.3609039445812Q1539.5574195953081 465.4609553552428 1539.5574195953081 457.1490006801347L1539.5574195953081 457.1490006801347Q1539.5574195953081 452.3516688151803 1535.9658342418666 447.8108787611861Q1532.374248888425 443.2957428882878 1527.1921043070301 440.34551206224637L1527.1921043070301 440.34551206224637Q1521.4712219226194 437.1900477874368 1515.4681435461525 434.3424336857794Q1509.4650651696857 431.469165403026 1503.9237620529466 428.33935530931245L1503.9237620529466 428.33935530931245Q1497.2793291490793 424.64515323148663 1494.12386487427 419.1808126580359Q1490.9940547805563 413.74212626568124 1490.9940547805563 407.8160104325023L1490.9940547805563 407.8160104325023Q1490.9940547805563 400.99199826096293 1493.5851270712537 395.80985367956833Q1496.1505451808548 390.65336327926985 1500.5887185104652 387.13874046911604Q1505.0268918400752 383.62411765896235 1510.927353492158 381.9565958877215Q1516.8534693253373 380.3147282975767 1523.4979022292046 380.3147282975767L1523.4979022292046 380.3147282975767Q1530.527147849512 380.3147282975767 1535.6836382498104 381.03304536826505Q1540.8657828312048 381.77701662004944 1546.0222732315037 383.26495912361815L1546.0222732315037 383.26495912361815Q1547.1510571997283 383.62411765896235 1547.9719909948003 384.36808891074674Q1548.7929247898728 385.11206016253107 1548.6133455222007 386.3947692173317L1548.6133455222007 386.3947692173317L1548.0746077191843 391.93607233407045Q1547.8693742704168 393.42401483763916 1546.9458237509602 393.78317337298336Q1546.0222732315037 394.16798608942355 1545.0987227120472 393.78317337298336L1545.0987227120472 393.78317337298336Q1540.4809701147647 392.1156516017425 1535.8632175174826 391.47429707434225Q1531.2454649202004 390.8329425469419 1524.7806112840053 390.8329425469419L1524.7806112840053 390.8329425469419Q1503.3593700688343 390.8329425469419 1503.3593700688343 407.8160104325023L1503.3593700688343 407.8160104325023Q1503.3593700688343 411.51021251032813 1506.2326383515879 414.84525605280976Q1509.080252453245 418.1802995952914 1515.9299188058808 421.48968895667707L1515.9299188058808 421.48968895667707Q1521.8303804579637 424.4399197827185 1527.5512628423744 427.1336087977998Q1533.2977994078815 429.80164363178517 1539.9422323117487 433.495845709611L1539.9422323117487 433.495845709611Q1545.6631146961595 436.65130998442055 1549.459933498369 443.11616362061574Q1553.2310981194832 449.5810172568109 1553.2310981194832 457.1490006801347L1553.2310981194832 457.1490006801347Q1553.2310981194832 464.5374048357863 1550.2808672934416 469.899128684853Q1547.3306364674004 475.2351983528236 1542.3280711536777 478.7498211629773Q1537.3511600210513 482.2644439731311 1530.8863063848562 484.0089282876599Q1524.421452748661 485.7790667832848 1517.5974405771217 485.7790667832848L1517.5974405771217 485.7790667832848Q1513.5184257828555 485.7790667832848 1510.2859989647577 485.5994875156127Q1507.0535721466604 485.3942540668446 1504.2059580450027 485.0350955315004Q1501.3326897622496 484.6759369961563 1498.382458936208 484.111545012044Q1495.4322281101668 483.5471530279317 1492.097184567685 482.62360250847524L1492.097184567685 482.62360250847524Q1489.5061122769876 481.7000519890188 1489.6856915446597 479.3142131470896L1489.6856915446597 479.3142131470896L1490.429662796444 472.46454679445424Q1490.8144755128842 469.51431596841275 1493.3798936224857 470.6174457555413Z " fill="#080a52" transform="matrix(0.5633418150940428,0,0,0.5633418150940428,0,68.59098978185624)"/></g></svg>